<mxfile host="app.diagrams.net" modified="2023-03-25T11:01:50.998Z" agent="5.0 (Windows NT 10.0; Win64; x64) AppleWebKit/537.36 (KHTML, like Gecko) Chrome/108.0.0.0 YaBrowser/23.1.5.708 Yowser/2.5 Safari/537.36" etag="KQrrL3Hbb7OH2eUPRaLP" version="20.8.20" type="github">
  <diagram name="Страница 1" id="pGyMe54b_l8I-c3kUbYD">
    <mxGraphModel dx="1670" dy="962" grid="1" gridSize="10" guides="1" tooltips="1" connect="1" arrows="1" fold="1" page="1" pageScale="1" pageWidth="827" pageHeight="1169" math="0" shadow="0">
      <root>
        <mxCell id="0" />
        <mxCell id="1" parent="0" />
        <mxCell id="wL5MfKjpjvl1COf12e9h-7" style="edgeStyle=orthogonalEdgeStyle;rounded=0;orthogonalLoop=1;jettySize=auto;html=1;entryX=0.5;entryY=0;entryDx=0;entryDy=0;" edge="1" parent="1" source="wL5MfKjpjvl1COf12e9h-1" target="wL5MfKjpjvl1COf12e9h-5">
          <mxGeometry relative="1" as="geometry" />
        </mxCell>
        <mxCell id="wL5MfKjpjvl1COf12e9h-8" value="Open Shop" style="edgeLabel;html=1;align=center;verticalAlign=middle;resizable=0;points=[];" vertex="1" connectable="0" parent="wL5MfKjpjvl1COf12e9h-7">
          <mxGeometry x="-0.063" relative="1" as="geometry">
            <mxPoint as="offset" />
          </mxGeometry>
        </mxCell>
        <mxCell id="wL5MfKjpjvl1COf12e9h-1" value="Actor" style="shape=umlActor;verticalLabelPosition=bottom;verticalAlign=top;html=1;outlineConnect=0;" vertex="1" parent="1">
          <mxGeometry x="500" y="20" width="40" height="80" as="geometry" />
        </mxCell>
        <mxCell id="wL5MfKjpjvl1COf12e9h-24" style="edgeStyle=orthogonalEdgeStyle;rounded=0;orthogonalLoop=1;jettySize=auto;html=1;exitX=0.5;exitY=1;exitDx=0;exitDy=0;entryX=0.25;entryY=1;entryDx=0;entryDy=0;" edge="1" parent="1" source="wL5MfKjpjvl1COf12e9h-2" target="wL5MfKjpjvl1COf12e9h-23">
          <mxGeometry relative="1" as="geometry">
            <Array as="points">
              <mxPoint x="385" y="910" />
              <mxPoint x="633" y="910" />
            </Array>
          </mxGeometry>
        </mxCell>
        <mxCell id="wL5MfKjpjvl1COf12e9h-2" value="SHOP PUBLIC" style="rounded=1;whiteSpace=wrap;html=1;" vertex="1" parent="1">
          <mxGeometry x="290" y="600" width="190" height="240" as="geometry" />
        </mxCell>
        <mxCell id="wL5MfKjpjvl1COf12e9h-3" value="API&lt;br&gt;" style="rounded=1;whiteSpace=wrap;html=1;" vertex="1" parent="1">
          <mxGeometry x="560" y="600" width="250" height="240" as="geometry" />
        </mxCell>
        <mxCell id="wL5MfKjpjvl1COf12e9h-4" value="DASBOARD" style="rounded=1;whiteSpace=wrap;html=1;" vertex="1" parent="1">
          <mxGeometry x="40" y="930" width="190" height="160" as="geometry" />
        </mxCell>
        <mxCell id="wL5MfKjpjvl1COf12e9h-9" style="edgeStyle=orthogonalEdgeStyle;rounded=0;orthogonalLoop=1;jettySize=auto;html=1;exitX=0.75;exitY=1;exitDx=0;exitDy=0;entryX=0.645;entryY=-0.041;entryDx=0;entryDy=0;entryPerimeter=0;" edge="1" parent="1" source="wL5MfKjpjvl1COf12e9h-5" target="wL5MfKjpjvl1COf12e9h-16">
          <mxGeometry relative="1" as="geometry">
            <Array as="points">
              <mxPoint x="610" y="470" />
              <mxPoint x="716" y="470" />
            </Array>
          </mxGeometry>
        </mxCell>
        <mxCell id="wL5MfKjpjvl1COf12e9h-10" value="Start" style="edgeLabel;html=1;align=center;verticalAlign=middle;resizable=0;points=[];" vertex="1" connectable="0" parent="wL5MfKjpjvl1COf12e9h-9">
          <mxGeometry x="-0.8124" y="-2" relative="1" as="geometry">
            <mxPoint x="42" y="83" as="offset" />
          </mxGeometry>
        </mxCell>
        <mxCell id="wL5MfKjpjvl1COf12e9h-5" value="Telegram" style="rounded=0;whiteSpace=wrap;html=1;" vertex="1" parent="1">
          <mxGeometry x="40" y="230" width="760" height="120" as="geometry" />
        </mxCell>
        <mxCell id="wL5MfKjpjvl1COf12e9h-13" style="edgeStyle=orthogonalEdgeStyle;rounded=0;orthogonalLoop=1;jettySize=auto;html=1;exitX=0.5;exitY=1;exitDx=0;exitDy=0;entryX=0.5;entryY=0;entryDx=0;entryDy=0;" edge="1" parent="1" source="wL5MfKjpjvl1COf12e9h-11" target="wL5MfKjpjvl1COf12e9h-2">
          <mxGeometry relative="1" as="geometry">
            <Array as="points">
              <mxPoint x="520" y="470" />
              <mxPoint x="385" y="470" />
            </Array>
          </mxGeometry>
        </mxCell>
        <mxCell id="wL5MfKjpjvl1COf12e9h-14" value="https://niksemenov.ru" style="edgeLabel;html=1;align=center;verticalAlign=middle;resizable=0;points=[];" vertex="1" connectable="0" parent="wL5MfKjpjvl1COf12e9h-13">
          <mxGeometry x="-0.0678" y="3" relative="1" as="geometry">
            <mxPoint x="-17" y="-3" as="offset" />
          </mxGeometry>
        </mxCell>
        <mxCell id="wL5MfKjpjvl1COf12e9h-11" value="Inline Button" style="ellipse;whiteSpace=wrap;html=1;aspect=fixed;" vertex="1" parent="1">
          <mxGeometry x="490" y="270" width="60" height="60" as="geometry" />
        </mxCell>
        <mxCell id="wL5MfKjpjvl1COf12e9h-18" style="edgeStyle=orthogonalEdgeStyle;rounded=0;orthogonalLoop=1;jettySize=auto;html=1;exitX=0;exitY=0.5;exitDx=0;exitDy=0;entryX=0.5;entryY=0;entryDx=0;entryDy=0;" edge="1" parent="1" source="wL5MfKjpjvl1COf12e9h-16" target="wL5MfKjpjvl1COf12e9h-2">
          <mxGeometry relative="1" as="geometry" />
        </mxCell>
        <mxCell id="wL5MfKjpjvl1COf12e9h-20" value="https://niksemenov.ru" style="edgeLabel;html=1;align=center;verticalAlign=middle;resizable=0;points=[];" vertex="1" connectable="0" parent="wL5MfKjpjvl1COf12e9h-18">
          <mxGeometry x="0.2136" y="1" relative="1" as="geometry">
            <mxPoint x="-21" y="-1" as="offset" />
          </mxGeometry>
        </mxCell>
        <mxCell id="wL5MfKjpjvl1COf12e9h-16" value="telegram service" style="rounded=1;whiteSpace=wrap;html=1;" vertex="1" parent="1">
          <mxGeometry x="580" y="630" width="210" height="60" as="geometry" />
        </mxCell>
        <mxCell id="wL5MfKjpjvl1COf12e9h-21" value="&lt;b&gt;bot-name&lt;/b&gt;" style="text;html=1;strokeColor=none;fillColor=none;align=center;verticalAlign=middle;whiteSpace=wrap;rounded=0;" vertex="1" parent="1">
          <mxGeometry x="430" y="470" width="60" height="30" as="geometry" />
        </mxCell>
        <mxCell id="wL5MfKjpjvl1COf12e9h-22" value="&lt;b&gt;bot-name&lt;/b&gt;" style="text;html=1;strokeColor=none;fillColor=none;align=center;verticalAlign=middle;whiteSpace=wrap;rounded=0;" vertex="1" parent="1">
          <mxGeometry x="430" y="554" width="60" height="30" as="geometry" />
        </mxCell>
        <mxCell id="wL5MfKjpjvl1COf12e9h-23" value="product service" style="rounded=1;whiteSpace=wrap;html=1;" vertex="1" parent="1">
          <mxGeometry x="580" y="750" width="210" height="60" as="geometry" />
        </mxCell>
        <mxCell id="wL5MfKjpjvl1COf12e9h-25" value="&lt;b&gt;bot-name&lt;/b&gt;" style="text;html=1;strokeColor=none;fillColor=none;align=center;verticalAlign=middle;whiteSpace=wrap;rounded=0;" vertex="1" parent="1">
          <mxGeometry x="490" y="880" width="60" height="30" as="geometry" />
        </mxCell>
      </root>
    </mxGraphModel>
  </diagram>
</mxfile>
